<?xml version="1.0" encoding="UTF-8" standalone="no"?>
<!-- Created with Inkscape (http://www.inkscape.org/) -->

<svg
   width="180"
   height="180"
   viewBox="0 0 180 180"
   version="1.1"
   id="svg5"
   inkscape:version="1.2.2 (732a01da63, 2022-12-09)"
   sodipodi:docname="transform.svg"
   xmlns:inkscape="http://www.inkscape.org/namespaces/inkscape"
   xmlns:sodipodi="http://sodipodi.sourceforge.net/DTD/sodipodi-0.dtd"
   xmlns="http://www.w3.org/2000/svg"
   xmlns:svg="http://www.w3.org/2000/svg">
  <sodipodi:namedview
     id="namedview7"
     pagecolor="#ffffff"
     bordercolor="#000000"
     borderopacity="0.25"
     inkscape:showpageshadow="2"
     inkscape:pageopacity="0.0"
     inkscape:pagecheckerboard="0"
     inkscape:deskcolor="#d1d1d1"
     inkscape:document-units="px"
     showgrid="false"
     inkscape:zoom="3.2566196"
     inkscape:cx="48.823633"
     inkscape:cy="102.25327"
     inkscape:window-width="1920"
     inkscape:window-height="1009"
     inkscape:window-x="-8"
     inkscape:window-y="-8"
     inkscape:window-maximized="1"
     inkscape:current-layer="layer1" />
  <defs
     id="defs2" />
  <g
     inkscape:label="Layer 1"
     inkscape:groupmode="layer"
     id="layer1">
    <path
       id="path1062"
       style="fill:#000000;fill-opacity:1;stroke:none;stroke-width:3.49175;stroke-linecap:round;stroke-dasharray:none;stroke-opacity:1"
       d="M 148.68945 18.986328 L 127.32617 26.96875 L 136.63867 28.904297 L 82.689453 86.853516 C 84.527193 88.774316 86.61861 90.682988 90.148438 92.919922 L 141.60352 32.253906 L 146.85938 39.746094 L 148.68945 18.986328 z M 70.046875 100.43164 L 15.111328 159.44141 C 16.637722 165.35951 18.078091 166.71516 25.970703 168.58203 L 77.984375 107.25977 C 75.013841 105.08313 72.370373 102.80004 70.046875 100.43164 z " />
    <path
       id="path11099-9"
       style="fill:#000000;stroke-width:2.81032;stroke-linecap:round;stroke-linejoin:round"
       d="m 65.962749,31.203202 c -8.952318,0.114487 -15.920043,2.907418 -19.761097,8.283977 -10.411475,14.624261 5.068632,43.509561 34.575781,64.517101 16.609716,11.82524 35.000477,17.67044 49.761627,18.33855 10.45274,0.47315 16.88916,-2.4301 21.03922,-8.25943 6.79651,-9.5524 2.76073,-24.825246 -10.40043,-41.223363 l 5.73708,-5.854921 -14.58939,1.478869 4.11744,13.191395 3.08992,-6.817454 c 6.3806,10.776228 8.81274,21.326098 4.3622,27.596714 -8.62662,12.11622 -35.43815,7.82868 -59.885529,-9.576546 C 59.561983,75.472729 46.736159,51.540371 55.362262,39.423634 60.827147,31.799325 73.916711,30.442483 89.914937,35.841998 81.089378,32.6453 72.925662,31.114156 65.962749,31.203202 Z"
       sodipodi:nodetypes="scsccccccccsccs" />
  </g>
</svg>
